<mxfile host="app.diagrams.net" modified="2020-10-31T10:06:59.563Z" agent="5.0 (Windows NT 10.0; Win64; x64) AppleWebKit/537.36 (KHTML, like Gecko) Chrome/86.0.4240.111 Safari/537.36 Edg/86.0.622.56" etag="8bSkTbhOz4ctD8hA_szP" version="13.8.8" type="github">
  <diagram id="I4FrubwUxi5H_ffGqCDw" name="Page-1">
    <mxGraphModel dx="687" dy="739" grid="1" gridSize="10" guides="1" tooltips="1" connect="1" arrows="1" fold="1" page="1" pageScale="1" pageWidth="2339" pageHeight="3300" math="0" shadow="0">
      <root>
        <mxCell id="0" />
        <mxCell id="1" parent="0" />
        <mxCell id="HozSRjoHXZyLaHgNDhbT-1" value="Utils" style="rounded=1;whiteSpace=wrap;html=1;" vertex="1" parent="1">
          <mxGeometry x="790" y="1000" width="70" height="360" as="geometry" />
        </mxCell>
        <mxCell id="HozSRjoHXZyLaHgNDhbT-2" value="App" style="rounded=1;whiteSpace=wrap;html=1;" vertex="1" parent="1">
          <mxGeometry x="890" y="1000" width="260" height="60" as="geometry" />
        </mxCell>
        <mxCell id="HozSRjoHXZyLaHgNDhbT-3" value="Service" style="rounded=1;whiteSpace=wrap;html=1;" vertex="1" parent="1">
          <mxGeometry x="890" y="1100" width="260" height="60" as="geometry" />
        </mxCell>
        <mxCell id="HozSRjoHXZyLaHgNDhbT-4" value="DAO" style="rounded=1;whiteSpace=wrap;html=1;" vertex="1" parent="1">
          <mxGeometry x="890" y="1200" width="260" height="60" as="geometry" />
        </mxCell>
        <mxCell id="HozSRjoHXZyLaHgNDhbT-5" value="POJO" style="rounded=1;whiteSpace=wrap;html=1;" vertex="1" parent="1">
          <mxGeometry x="890" y="1300" width="260" height="60" as="geometry" />
        </mxCell>
      </root>
    </mxGraphModel>
  </diagram>
</mxfile>
